<svg preserveAspectRatio="none" width="100%" height="100%" overflow="visible" style="display: block;" viewBox="0 0 15.9905 15.9905" fill="none" xmlns="http://www.w3.org/2000/svg">
<g id="Icon" clip-path="url(#clip0_0_21)">
<path id="Vector" d="M14.658 11.2733V13.2721C14.6587 13.4577 14.6207 13.6413 14.5464 13.8114C14.472 13.9814 14.363 14.134 14.2263 14.2594C14.0895 14.3849 13.9281 14.4804 13.7523 14.5398C13.5766 14.5993 13.3903 14.6214 13.2055 14.6047C11.1553 14.3819 9.18588 13.6813 7.45557 12.5592C5.84575 11.5363 4.4809 10.1714 3.45795 8.56158C2.33193 6.82342 1.63119 4.84445 1.41249 2.78501C1.39584 2.60077 1.41774 2.41507 1.47679 2.23975C1.53584 2.06443 1.63075 1.90333 1.75547 1.7667C1.88019 1.63007 2.032 1.5209 2.20122 1.44616C2.37044 1.37141 2.55338 1.33272 2.73837 1.33254H4.73719C5.06053 1.32936 5.374 1.44386 5.61917 1.65471C5.86434 1.86555 6.02447 2.15835 6.06973 2.47853C6.15409 3.11819 6.31055 3.74626 6.53612 4.35075C6.62576 4.58922 6.64516 4.8484 6.59202 5.09756C6.53889 5.34672 6.41543 5.57543 6.2363 5.75658L5.39013 6.60275C6.33861 8.27079 7.71972 9.6519 9.38776 10.6004L10.2339 9.75421C10.4151 9.57507 10.6438 9.45162 10.8929 9.39848C11.1421 9.34534 11.4013 9.36474 11.6398 9.45439C12.2442 9.67995 12.8723 9.83641 13.512 9.92078C13.8356 9.96644 14.1312 10.1295 14.3425 10.3788C14.5538 10.6282 14.6661 10.9466 14.658 11.2733Z" stroke="var(--stroke-0, #82181A)" stroke-width="1.33254" stroke-linecap="round" stroke-linejoin="round"></path>
</g>
<defs>
<clipPath id="clip0_0_21">
<rect width="15.9905" height="15.9905" fill="white"></rect>
</clipPath>
</defs>
</svg>